<?xml version="1.0" standalone="no"?>
<!DOCTYPE svg PUBLIC "-//W3C//DTD SVG 20010904//EN"
 "http://www.w3.org/TR/2001/REC-SVG-20010904/DTD/svg10.dtd">
<svg version="1.0" xmlns="http://www.w3.org/2000/svg"
 width="2048.000000pt" height="2048.000000pt" viewBox="0 0 2048.000000 2048.000000"
 preserveAspectRatio="xMidYMid meet">
<metadata>
Created by potrace 1.11, written by Peter Selinger 2001-2013
</metadata>
<g transform="translate(0.000000,2048.000000) scale(0.100000,-0.100000)"
fill="#000000" stroke="none">
<path d="M0 10235 l0 -3855 978 2 977 3 0 1321 0 1320 670 0 c607 1 947 7
1015 18 14 3 54 7 90 10 36 4 76 8 90 11 14 2 41 6 60 9 19 2 46 7 60 10 14 3
36 8 50 10 53 9 177 36 219 49 l44 14 43 129 c37 114 151 465 306 944 28 85
65 200 83 255 18 55 77 235 130 400 53 165 108 333 122 374 14 40 26 78 27 85
1 6 48 151 104 321 55 171 153 472 218 670 64 198 132 407 150 463 19 57 40
126 48 152 l15 49 -41 58 c-336 479 -771 777 -1358 927 -161 41 -308 68 -450
81 -36 4 -81 9 -100 12 -19 4 -826 8 -1792 10 l-1758 4 0 -3856z m2910 2351
c149 -13 260 -33 355 -62 257 -80 425 -217 539 -441 27 -54 72 -182 79 -228 3
-16 7 -41 11 -55 16 -73 24 -327 11 -390 -3 -14 -7 -47 -10 -75 -13 -112 -69
-272 -133 -379 -87 -146 -213 -254 -380 -325 -73 -31 -254 -76 -342 -86 -30
-4 -68 -9 -85 -12 -45 -7 -995 -12 -996 -5 -5 33 -2 2058 3 2062 9 7 861 4
948 -4z"/>
<path d="M9062 14063 c-6 -16 -32 -93 -57 -173 -26 -80 -60 -183 -75 -230 -55
-165 -284 -865 -286 -875 -3 -17 -65 -209 -74 -230 -5 -11 -30 -85 -55 -165
-62 -195 -138 -429 -291 -895 -70 -214 -129 -394 -130 -400 -1 -5 -13 -44 -27
-85 -14 -41 -91 -277 -171 -525 -81 -247 -155 -475 -166 -505 -10 -30 -68
-210 -130 -400 -147 -456 -152 -471 -155 -468 -2 3 -248 490 -866 1715 -151
298 -277 539 -280 535 -6 -6 -160 -472 -165 -499 -1 -7 -32 -101 -67 -210 -36
-109 -123 -373 -192 -588 -70 -214 -147 -451 -171 -525 -25 -74 -46 -142 -48
-150 -2 -8 -13 -42 -24 -75 -12 -33 -75 -229 -142 -435 -67 -206 -144 -443
-171 -525 -27 -83 -49 -157 -49 -164 0 -12 111 -207 295 -521 34 -58 87 -149
118 -202 32 -54 81 -140 111 -190 132 -227 371 -637 395 -678 14 -26 49 -85
76 -133 l50 -87 1016 0 1016 0 20 63 c36 109 253 775 318 972 34 105 133 406
219 670 87 264 163 494 169 510 6 17 12 35 13 40 2 6 39 120 83 255 121 364
419 1273 448 1365 14 44 29 89 33 100 5 11 41 119 80 240 40 121 75 226 79
234 6 9 11 1 18 -25 6 -22 39 -127 73 -234 34 -107 72 -229 85 -270 12 -41 34
-111 48 -155 14 -44 48 -152 75 -240 28 -88 109 -349 182 -580 72 -231 151
-483 175 -560 24 -77 83 -264 130 -415 94 -299 135 -430 330 -1055 26 -82 55
-175 65 -205 10 -30 32 -102 50 -160 17 -58 54 -177 82 -265 28 -88 59 -188
70 -223 l20 -62 1017 0 1017 0 72 178 c39 97 138 344 220 547 82 204 204 507
272 675 67 168 128 319 135 335 7 17 63 154 124 305 216 539 311 775 321 795
11 23 204 506 232 580 10 28 25 64 33 80 7 17 59 145 115 285 97 242 140 350
159 395 24 56 79 193 161 400 50 127 95 237 100 246 4 9 27 65 50 125 24 60
48 123 56 139 7 17 45 111 84 210 68 170 90 223 110 270 5 11 75 184 156 385
158 394 190 474 204 505 5 11 58 144 119 296 107 269 125 313 142 354 4 11 22
56 40 100 17 44 37 94 44 110 26 60 155 385 155 390 0 3 -463 5 -1028 5
l-1029 0 -178 -417 c-312 -731 -558 -1307 -720 -1688 -86 -203 -165 -388 -175
-410 -10 -22 -30 -69 -45 -105 -37 -89 -49 -116 -79 -183 -14 -32 -26 -60 -26
-62 0 -2 -11 -29 -25 -59 -14 -30 -25 -57 -25 -60 0 -3 -11 -29 -24 -58 -14
-29 -37 -82 -51 -118 -15 -36 -36 -85 -47 -110 -39 -86 -47 -107 -144 -335
-53 -126 -105 -248 -114 -270 -10 -22 -37 -85 -60 -140 -23 -55 -50 -118 -60
-140 -9 -22 -43 -101 -75 -175 -31 -74 -65 -153 -75 -175 -10 -22 -59 -139
-111 -260 -51 -120 -94 -215 -96 -210 -6 19 -106 353 -154 515 -27 91 -53 176
-58 190 -5 14 -21 63 -35 110 -13 47 -73 243 -131 435 -142 467 -220 722 -305
1005 -39 129 -85 280 -101 335 -17 55 -41 134 -54 175 -13 41 -35 116 -50 165
-15 50 -42 140 -61 200 -18 61 -88 290 -154 510 -67 220 -136 450 -155 510
-89 291 -118 385 -174 570 -33 110 -63 212 -67 228 l-6 27 -793 0 -793 0 -10
-27z"/>
<path d="M17480 13848 c-51 -128 -139 -352 -196 -498 -58 -146 -109 -274 -114
-285 -5 -11 -34 -83 -64 -160 -55 -142 -123 -315 -351 -890 -69 -176 -140
-356 -158 -399 -17 -44 -30 -87 -30 -95 2 -15 127 -374 158 -451 7 -19 57
-159 110 -310 53 -151 101 -284 105 -295 8 -18 68 -185 142 -395 39 -112 68
-192 116 -325 77 -211 172 -480 172 -485 0 -3 -384 -5 -852 -5 l-853 0 -92
-230 c-94 -236 -97 -245 -132 -330 -11 -27 -63 -160 -116 -295 -52 -135 -100
-254 -104 -265 -5 -11 -41 -100 -79 -197 l-70 -177 1361 -1 c749 0 1372 0
1385 0 27 0 20 15 117 -260 42 -118 80 -224 85 -235 5 -11 13 -33 18 -50 6
-16 28 -79 50 -140 22 -60 86 -238 142 -395 56 -157 105 -288 109 -293 4 -4
487 -6 1073 -5 l1066 3 -64 170 c-35 94 -72 193 -83 220 -53 147 -203 543
-211 560 -5 11 -77 202 -161 425 -83 223 -194 518 -246 655 -52 138 -100 266
-107 285 -7 19 -109 289 -226 600 -117 311 -232 617 -256 680 -23 63 -48 129
-55 145 -7 17 -13 32 -14 35 -5 20 -19 60 -30 85 -7 17 -18 44 -23 60 -6 17
-26 71 -45 120 -18 50 -57 153 -86 230 -29 77 -56 149 -61 160 -5 11 -30 76
-55 145 -26 69 -50 134 -55 145 -5 11 -73 191 -151 400 -78 209 -158 421 -176
470 -19 50 -40 106 -47 125 -7 19 -109 289 -226 600 -117 311 -230 612 -252
670 -21 58 -42 114 -47 125 -10 22 -23 55 -27 70 -8 30 -191 505 -196 510 -3
4 -47 -99 -98 -227z"/>
</g>
</svg>
